<svg width="495" height="458" viewBox="0 0 495 458" fill="none" xmlns="http://www.w3.org/2000/svg">
<circle cx="229" cy="229" r="228.5" fill="#FFBB45" stroke="black"/>
<path d="M97.2761 235.01H86.7115V414.57H97.2761V235.01Z" fill="#30242A"/>
<path d="M38.7706 378.54C39.8408 375.471 41.8394 372.811 44.4892 370.928C47.1391 369.046 50.309 368.035 53.5594 368.035C56.8098 368.035 59.9797 369.046 62.6295 370.928C65.2794 372.811 67.278 375.471 68.3481 378.54C69.3695 375.61 71.2383 373.049 73.7173 371.183C76.1964 369.316 79.1739 368.228 82.2722 368.057C80.889 365.592 79.2418 363.284 77.3599 361.175L71.6732 354.778C69.9053 352.791 68.7919 350.308 68.484 347.666C68.1762 345.024 68.6889 342.351 69.9526 340.011L74.7789 331.042C73.424 332.406 65.5908 339.74 53.7013 339.74C41.8118 339.74 33.9787 332.406 32.6237 331.042H32.6022L37.4329 340.011C38.6909 342.356 39.1958 345.032 38.8787 347.674C38.5615 350.317 37.4379 352.797 35.6606 354.778L29.9783 361.149C28.0928 363.258 26.4414 365.566 25.053 368.031C28.1181 368.245 31.0527 369.355 33.4917 371.223C35.9308 373.092 37.7666 375.636 38.7706 378.54Z" fill="#FFC1EB"/>
<path d="M83.1368 387.603C79.8855 387.604 76.715 388.616 74.065 390.5C71.415 392.384 69.417 395.046 68.3481 398.116C67.28 395.045 65.2822 392.383 62.632 390.499C59.9819 388.615 56.811 387.602 53.5594 387.602C50.3077 387.602 47.1368 388.615 44.4867 390.499C41.8366 392.383 39.8388 395.045 38.7706 398.116C37.4772 394.406 34.8366 391.316 31.3725 389.461C27.9083 387.605 23.8733 387.119 20.0675 388.098C20.286 398.025 24.2864 407.494 31.2515 414.57H76.0694C83.0204 407.509 87.0197 398.064 87.2534 388.158C85.9121 387.79 84.5276 387.604 83.1368 387.603Z" fill="#FFC1EB"/>
<path d="M53.6669 339.757C65.5564 339.757 73.3895 332.423 74.7445 331.06H32.5893C33.9443 332.41 41.7774 339.757 53.6669 339.757Z" fill="#6DC8C2"/>
<path d="M38.7706 398.116C39.8388 395.045 41.8366 392.383 44.4867 390.499C47.1368 388.615 50.3078 387.602 53.5594 387.602C56.811 387.602 59.9819 388.615 62.6321 390.499C65.2822 392.383 67.28 395.045 68.3481 398.116C69.6523 394.366 72.3326 391.251 75.8465 389.403C79.3604 387.554 83.4455 387.109 87.2749 388.158C87.4517 381.13 85.7262 374.185 82.2808 368.057C79.1825 368.229 76.2049 369.316 73.7259 371.183C71.2469 373.049 69.3781 375.61 68.3567 378.54C67.2866 375.471 65.288 372.811 62.6381 370.928C59.9883 369.046 56.8184 368.035 53.568 368.035C50.3176 368.035 47.1477 369.046 44.4978 370.928C41.848 372.811 39.8494 375.471 38.7792 378.54C37.769 375.644 35.9305 373.107 33.4919 371.246C31.0534 369.385 28.1221 368.281 25.0616 368.07C21.6317 374.177 19.9095 381.096 20.0761 388.098C23.8819 387.119 27.9169 387.605 31.3811 389.46C34.8452 391.316 37.4858 394.406 38.7792 398.116H38.7706Z" fill="white"/>
<path fill-rule="evenodd" clip-rule="evenodd" d="M71.9572 300.398C72.3162 300.709 72.3549 301.252 72.0437 301.611C67.2425 307.149 63.8496 315.069 61.5469 322.327C59.25 329.566 58.0654 336.055 57.6389 338.666C57.5623 339.135 57.12 339.453 56.6511 339.376C56.1822 339.299 55.8642 338.857 55.9408 338.388C56.3746 335.734 57.5753 329.155 59.9068 321.806C62.2326 314.476 65.7114 306.289 70.7436 300.484C71.0548 300.125 71.5981 300.086 71.9572 300.398Z" fill="#6DC8C2"/>
<path fill-rule="evenodd" clip-rule="evenodd" d="M45.4629 285.008C45.9136 284.858 46.4008 285.102 46.551 285.552C49.5031 294.411 51.1225 306.213 52.0151 316.503C52.9092 326.809 53.0796 335.667 53.112 338.668C53.1171 339.143 52.7361 339.533 52.261 339.538C51.7859 339.543 51.3966 339.162 51.3914 338.687C51.3593 335.709 51.1899 326.898 50.3009 316.652C49.4106 306.389 47.8038 294.754 44.9187 286.096C44.7685 285.646 45.0121 285.158 45.4629 285.008Z" fill="#6DC8C2"/>
<path d="M78.1237 318.135C86.7455 314.341 93.0431 309.694 92.1896 307.754C91.3361 305.814 83.6549 307.317 75.033 311.111C66.4112 314.905 60.1136 319.553 60.9671 321.492C61.8206 323.432 69.5018 321.929 78.1237 318.135Z" fill="#6DC8C2"/>
<path d="M78.1186 264.768C81.2183 260.577 82.5465 256.304 81.0854 255.223C79.6243 254.143 75.9271 256.664 72.8275 260.854C69.7279 265.044 68.3996 269.318 69.8607 270.398C71.3218 271.479 75.019 268.958 78.1186 264.768Z" fill="#6DC8C2"/>
<path d="M31.4386 321.114C42.6784 319.415 51.5467 316.427 51.2465 314.443C50.9463 312.458 41.5913 312.227 30.3515 313.927C19.1117 315.626 10.2433 318.613 10.5435 320.598C10.8437 322.583 20.1987 322.814 31.4386 321.114Z" fill="#6DC8C2"/>
<path d="M23.5862 291.795V291.825C25.2469 292.754 26.4994 294.271 27.0969 296.077C27.6943 297.884 27.5933 299.849 26.8137 301.584C26.0341 303.32 24.6326 304.701 22.8854 305.454C21.1381 306.208 19.1721 306.279 17.3747 305.655V305.68C26.7951 309.913 35.8327 310.236 37.5533 306.403C39.2739 302.57 33.0109 296.028 23.5862 291.795Z" fill="#FB6D6D"/>
<path d="M51.4387 261.116C49.4342 260.596 46.8275 263.628 44.9219 268.321C42.6291 262.622 39.304 258.806 37.0629 259.546C34.8218 260.286 34.4218 265.327 35.9746 271.272C31.6473 268.64 27.7501 267.754 26.4467 269.367C24.7863 271.423 27.9867 276.757 33.5959 281.286C35.1917 282.586 36.9087 283.73 38.7233 284.702C39.0326 283.473 39.644 282.341 40.5019 281.409C41.3598 280.476 42.437 279.773 43.6358 279.363C44.8345 278.953 46.1167 278.848 47.366 279.06C48.6152 279.271 49.7919 279.791 50.7892 280.572C51.6299 278.763 52.301 276.879 52.7937 274.946C54.6047 267.973 53.9981 261.779 51.4387 261.116Z" fill="#FB6D6D"/>
<path d="M95.1683 292.78C94.5489 290.801 90.5957 290.199 85.6059 291.059C89.2278 286.1 90.7076 281.261 88.8966 279.751C87.0857 278.241 82.5905 280.568 78.3664 285.029C78.3148 279.961 77.0028 276.185 74.9467 275.931C72.327 275.608 69.488 281.149 68.6105 288.298C68.3505 290.342 68.2871 292.406 68.4212 294.462C69.6281 294.073 70.913 293.992 72.1591 294.226C73.4052 294.461 74.5729 295.003 75.5561 295.803C76.5393 296.604 77.3067 297.638 77.7885 298.811C78.2703 299.984 78.4512 301.258 78.3148 302.519C80.2959 302.268 82.2498 301.836 84.152 301.228C91.0216 299.09 95.9555 295.301 95.1683 292.78Z" fill="#FB6D6D"/>
<path d="M75.6134 295.847C74.6297 295.026 73.4545 294.468 72.197 294.224C70.9395 293.979 69.6407 294.057 68.4212 294.449C68.6664 297.851 69.5267 300.471 70.8215 301.422C72.0302 302.54 74.8262 302.914 78.3062 302.506C78.4418 301.26 78.2669 300 77.7971 298.838C77.3272 297.676 76.577 296.648 75.6134 295.847V295.847Z" fill="#6DC8C2"/>
<path d="M43.7131 279.338C42.4968 279.739 41.4017 280.441 40.5293 281.379C39.657 282.317 39.0357 283.46 38.7233 284.702C41.7344 286.293 44.41 286.938 45.9155 286.353C47.5028 285.923 49.2965 283.742 50.7892 280.572C49.8033 279.798 48.6411 279.281 47.4064 279.065C46.1717 278.85 44.9028 278.943 43.7131 279.338V279.338Z" fill="#6DC8C2"/>
<path d="M24.425 304.566C23.6161 304.115 23.0061 303.377 22.7158 302.497C22.4255 301.618 22.4761 300.661 22.8575 299.817C23.2389 298.973 23.9233 298.303 24.7753 297.94C25.6272 297.577 26.5845 297.547 27.4576 297.856C27.3566 296.611 26.9505 295.411 26.2753 294.36C25.6001 293.31 24.6765 292.442 23.5862 291.833L17.3618 305.654C18.5383 306.065 19.7976 306.181 21.0291 305.991C22.2607 305.801 23.4268 305.312 24.425 304.566Z" fill="white"/>
<path d="M22.842 299.822C22.4668 300.665 22.4212 301.619 22.7142 302.495C23.0072 303.371 23.6175 304.105 24.4249 304.553C25.4588 303.784 26.2798 302.765 26.8104 301.591C27.341 300.417 27.5637 299.127 27.4575 297.843C26.5804 297.53 25.6177 297.561 24.762 297.928C23.9062 298.294 23.2205 298.971 22.842 299.822V299.822Z" fill="#C7B8F8"/>
<path d="M307.114 306.764H197.713L199.563 299.426H247.585L265.901 227.796C268.396 218.039 274.069 209.391 282.023 203.214C289.978 197.038 299.762 193.685 309.833 193.685C334.477 193.685 352.509 216.913 346.396 240.787L335.079 285.046C333.49 291.257 329.88 296.762 324.817 300.695C319.753 304.627 313.525 306.763 307.114 306.764Z" fill="#30242A"/>
<path d="M199.06 381.821V375.052H267.784V381.821H199.06Z" fill="#30242A" stroke="black"/>
<path d="M279.769 410.397L261.634 302.45H205.206L187.071 410.397C186.985 410.911 187.013 411.437 187.151 411.939C187.289 412.44 187.535 412.906 187.872 413.303C188.208 413.7 188.627 414.019 189.1 414.238C189.572 414.457 190.086 414.57 190.607 414.57V414.57C191.425 414.569 192.218 414.289 192.855 413.776C193.491 413.263 193.934 412.547 194.108 411.748L217.861 302.45H248.996L272.741 411.748C272.915 412.547 273.357 413.263 273.994 413.777C274.631 414.29 275.424 414.57 276.242 414.57V414.57C276.762 414.569 277.275 414.455 277.747 414.235C278.218 414.016 278.636 413.697 278.971 413.3C279.307 412.903 279.552 412.438 279.69 411.937C279.828 411.435 279.855 410.91 279.769 410.397V410.397Z" fill="#30242A"/>
<path d="M256.322 374.552V382.321H326.046V374.552H256.322Z" fill="#30242A"/>
<path d="M337.531 410.397L319.378 302.45H262.972L244.837 410.397C244.751 410.911 244.778 411.437 244.916 411.939C245.055 412.44 245.301 412.906 245.637 413.303C245.974 413.7 246.393 414.019 246.865 414.238C247.338 414.457 247.852 414.57 248.372 414.57V414.57C249.19 414.57 249.983 414.29 250.619 413.776C251.255 413.263 251.697 412.547 251.87 411.748L275.614 302.45H306.753L330.498 411.748C330.672 412.548 331.114 413.265 331.752 413.778C332.39 414.291 333.185 414.571 334.003 414.57V414.57C334.523 414.569 335.037 414.455 335.508 414.235C335.979 414.016 336.397 413.697 336.733 413.3C337.068 412.903 337.313 412.438 337.451 411.937C337.589 411.435 337.616 410.91 337.531 410.397V410.397Z" fill="#30242A"/>
<path fill-rule="evenodd" clip-rule="evenodd" d="M199.834 298.707C199.834 298.232 200.219 297.847 200.694 297.847H258.894C259.369 297.847 259.754 298.232 259.754 298.707C259.754 299.183 259.369 299.568 258.894 299.568H200.694C200.219 299.568 199.834 299.183 199.834 298.707Z" fill="#FB6D6D"/>
<path fill-rule="evenodd" clip-rule="evenodd" d="M258.204 257.728C258.664 257.845 258.942 258.314 258.824 258.774L248.625 298.65C248.507 299.11 248.039 299.388 247.578 299.27C247.118 299.152 246.84 298.684 246.958 298.223L257.157 258.348C257.275 257.888 257.743 257.61 258.204 257.728Z" fill="#FB6D6D"/>
<path fill-rule="evenodd" clip-rule="evenodd" d="M312.926 257.069C312.926 256.593 313.311 256.208 313.786 256.208H341.316C341.791 256.208 342.176 256.593 342.176 257.069C342.176 257.544 341.791 257.929 341.316 257.929H313.786C313.311 257.929 312.926 257.544 312.926 257.069Z" fill="#30242A"/>
<path d="M217.995 228.971C217.995 228.971 183.483 238.37 168.824 245.704C144.653 257.787 144.735 265.762 129.998 310.408C116.392 351.668 114.895 371.666 96.1276 372.458C81.7991 373.06 77.1018 377.749 74.7789 384.175L131.478 411.077C132.128 411.385 132.87 411.432 133.554 411.21C134.238 410.987 134.811 410.512 135.156 409.881V409.881C135.507 409.236 135.592 408.48 135.394 407.773C135.195 407.066 134.729 406.464 134.093 406.096L132.902 405.408C138.171 399.024 148.335 385.423 158.47 364.762L164.922 367.773C164.922 367.773 175.345 354.228 176.997 338.863C179.148 319.02 177.857 305.646 186.92 297.882L292.61 228.954L217.995 228.971Z" fill="#FB6D6D"/>
<path d="M90.557 375.645C91.6797 373.309 97.917 359.08 101.504 360.8C106.172 363.037 94.0585 377.323 94.0585 377.323L90.557 375.645Z" fill="#30242A"/>
<path d="M74.7746 384.377L131.473 411.275C132.13 411.588 132.882 411.635 133.572 411.405C134.262 411.176 134.837 410.688 135.175 410.044C135.514 409.401 135.589 408.651 135.387 407.952C135.184 407.254 134.719 406.661 134.089 406.298L132.897 405.61L133.018 405.463L94.0456 387.066C94.6295 385.448 95.0391 383.772 95.2672 382.067C101.1 383.078 112.904 384.166 112.964 379.301C113.028 374.768 100.137 376.587 95.4264 377.869C95.3249 376.126 94.9862 374.406 94.4198 372.754C81.4248 373.649 77.0028 378.209 74.7746 384.377Z" fill="#30242A"/>
<path d="M127.916 350.567L118.883 346.296C118.719 346.795 118.556 347.285 118.392 347.771C112.934 364.031 107.961 372.161 96.1361 372.66C95.5554 372.66 94.9962 372.716 94.4456 372.754C95.012 374.406 95.3506 376.126 95.4522 377.869C100.184 376.579 113.054 374.768 112.99 379.301C112.921 384.167 101.126 383.078 95.293 382.067C95.0607 383.773 94.6468 385.448 94.0585 387.066L133.031 405.463C138.33 399.011 148.409 385.478 158.466 364.99L127.916 350.567Z" fill="white"/>
<path d="M175.956 398.71C176.136 396.129 176.7 380.601 180.666 380.88C185.828 381.242 179.827 398.981 179.827 398.981L175.956 398.71Z" fill="#30242A"/>
<path d="M271.489 229.603C271.489 229.603 228.349 237.604 204.621 247.523C180.666 257.542 180.898 275.333 185.208 323.661C189.08 366.926 195.997 387.935 181.767 394.404C168.716 400.34 164.182 407.782 164.802 414.587H229.046C229.408 414.587 229.766 414.516 230.101 414.377C230.435 414.239 230.739 414.035 230.995 413.779C231.251 413.523 231.454 413.219 231.593 412.885C231.731 412.55 231.803 412.192 231.803 411.83C231.803 411.098 231.512 410.397 230.995 409.88C230.478 409.363 229.777 409.072 229.046 409.072H227.962C229.988 402.444 232.926 389.505 233.33 368.092H241.296C241.296 368.092 245.391 349.165 240.866 332.285C236.134 314.602 231.807 311.582 229.222 299.503H267.88C297.401 299.503 319.499 272.197 313.076 243.385C311.072 234.382 308.164 229.62 308.164 229.62L271.489 229.603Z" fill="#FB6D6D"/>
<path d="M229.046 409.055H227.962C229.988 402.426 232.926 389.487 233.33 368.074H189.992V368.113C190.026 368.543 190.056 368.973 190.086 369.403C190.086 369.442 190.086 369.485 190.086 369.524C190.985 382.966 189.519 390.829 181.75 394.361C168.699 400.297 164.165 407.739 164.785 414.544H229.046C229.777 414.544 230.478 414.253 230.995 413.736C231.512 413.219 231.803 412.518 231.803 411.787C231.803 411.055 231.512 410.354 230.995 409.837C230.478 409.32 229.777 409.029 229.046 409.029V409.055Z" fill="white"/>
<path d="M184.623 404.01C190.327 402.435 201.46 398.383 199.447 393.957C197.571 389.827 186.688 396.968 182.976 400.147C182.039 398.428 180.842 396.863 179.427 395.51C168.166 401.244 164.213 408.186 164.802 414.57H229.046C229.777 414.57 230.478 414.279 230.995 413.762C231.512 413.245 231.803 412.544 231.803 411.813V411.813C231.803 411.081 231.512 410.38 230.995 409.863C230.478 409.346 229.777 409.055 229.046 409.055H185.643C185.482 407.342 185.14 405.651 184.623 404.01V404.01Z" fill="#30242A"/>
<path fill-rule="evenodd" clip-rule="evenodd" d="M217.079 300.287C217.085 299.812 217.476 299.432 217.951 299.439L229.057 299.594C229.533 299.6 229.912 299.991 229.906 300.466C229.899 300.941 229.509 301.321 229.033 301.314L217.927 301.159C217.452 301.153 217.072 300.762 217.079 300.287Z" fill="#FB6D6D"/>
<path fill-rule="evenodd" clip-rule="evenodd" d="M238.138 237.314C238.256 237.774 237.977 238.243 237.517 238.36C226.021 241.291 213.772 244.879 204.514 248.743C194.746 252.834 189.182 258.176 186.233 266.359C183.252 274.636 182.912 285.898 183.878 301.921C183.906 302.395 183.545 302.803 183.071 302.831C182.596 302.86 182.189 302.498 182.16 302.024C181.195 286.009 181.5 274.421 184.615 265.776C187.762 257.039 193.745 251.388 203.85 247.156L203.851 247.155C213.228 243.242 225.575 239.629 237.092 236.693C237.552 236.576 238.021 236.854 238.138 237.314Z" fill="#FFC1EB"/>
<path d="M383.334 235.01H372.769V414.57H383.334V235.01Z" fill="#30242A"/>
<path d="M230.074 99.9887C224.051 99.1284 210.256 105.602 209.8 118.399C209.344 131.197 220.769 135.309 222.598 136.225L249.108 132.108L250.936 102.858L230.074 99.9887Z" fill="#30242A"/>
<path d="M276.909 68.2089C288.288 68.2089 297.513 58.9839 297.513 47.6044C297.513 36.2249 288.288 27 276.909 27C265.529 27 256.304 36.2249 256.304 47.6044C256.304 58.9839 265.529 68.2089 276.909 68.2089Z" fill="#30242A"/>
<path d="M263.544 61.7738C264.8 62.3545 254.222 37.2549 248.824 41.1694C243.744 44.8644 257.165 58.8315 263.544 61.7738Z" fill="#FFC1EB"/>
<path d="M264.129 63.3094C265.282 64.6859 292.27 55.244 288.536 49.7983C284.966 44.559 262.976 61.9286 264.129 63.3094Z" fill="#FFC1EB"/>
<path d="M299.957 132.341C299.957 132.341 318.075 117.242 306.409 100.419C298.984 89.6952 278.797 93.9666 278.797 93.9666C279.288 88.0778 280.888 71.1125 268.129 61.791C255.371 52.4696 239.184 57.3776 233.287 64.7333C227.389 72.089 228.873 85.8324 226.912 95.6443C224.95 105.456 226.258 112.128 232.306 115.268C237.808 118.124 244.282 116.399 244.282 116.399L243.593 126.753C243.593 126.753 231.119 127.222 223.475 129.988C205.056 136.655 172.695 182.381 172.695 182.381C152.422 181.52 133.439 180.66 133.439 180.66L143.363 209.997C143.363 209.997 168.381 218.191 186.499 213.438C204.879 208.625 222.305 182.811 222.305 182.811L228.327 200.064L217.973 228.967H308.134L293.035 202.22C295.646 178.501 299.957 132.341 299.957 132.341Z" fill="white"/>
<path d="M270.986 125.678L247.327 168.577L237.649 127.183C233.394 127.613 227.725 128.448 223.518 129.971C205.056 136.655 172.695 182.381 172.695 182.381C152.422 181.52 133.439 180.66 133.439 180.66L143.363 209.997C143.363 209.997 168.381 218.191 186.499 213.438C204.879 208.625 222.305 182.811 222.305 182.811L228.327 200.064L217.973 228.967H308.134L293.035 202.224C295.616 178.496 299.918 132.337 299.918 132.337C295.924 129.905 291.55 128.16 286.979 127.175C281.83 126.013 276.169 126.706 270.986 125.678Z" fill="#5360E4"/>
<path d="M148.465 225.951H223.174L206.187 172.302C205.688 170.721 204.697 169.34 203.36 168.36C202.023 167.38 200.408 166.852 198.75 166.852H135.612C134.385 166.851 133.175 167.14 132.081 167.695C130.986 168.249 130.038 169.054 129.314 170.044C128.589 171.034 128.108 172.181 127.91 173.392C127.712 174.603 127.803 175.843 128.174 177.012L142.214 221.379C142.636 222.706 143.468 223.864 144.592 224.686C145.716 225.508 147.072 225.951 148.465 225.951V225.951Z" fill="#30242A"/>
<path d="M159.597 191.121C161.58 188.411 170.574 195.569 171.237 196.158C171.581 195.569 176.265 188.416 179.698 191.121C182.679 193.47 176.128 203.961 174.386 206.637C174.313 206.718 174.223 206.783 174.124 206.827C174.024 206.872 173.916 206.895 173.807 206.895C173.698 206.895 173.59 206.872 173.49 206.827C173.391 206.783 173.302 206.718 173.229 206.637C170.05 203.961 157.876 193.47 159.597 191.121Z" fill="#FB6D6D"/>
<path d="M170.496 192.936C171.247 192.702 171.275 190.65 170.559 188.352C169.844 186.054 168.655 184.381 167.904 184.615C167.153 184.849 167.125 186.901 167.841 189.199C168.556 191.497 169.745 193.17 170.496 192.936Z" fill="#FB6D6D"/>
<path d="M266.555 219.912C266.771 220.606 266.821 221.341 266.702 222.058C266.582 222.775 266.295 223.454 265.865 224.04C265.435 224.626 264.873 225.102 264.225 225.431C263.576 225.76 262.86 225.932 262.133 225.934H148.465C147.072 225.934 145.716 225.491 144.592 224.669C143.468 223.847 142.636 222.689 142.214 221.361L141.75 219.895L266.555 219.912Z" fill="#30242A"/>
<path d="M401.538 225.951H68.5073V236.735H401.538V225.951Z" fill="#30242A"/>
<path d="M335.074 285.046L341.991 257.993H301.643C292.654 257.994 283.921 260.986 276.821 266.499C269.721 272.012 264.657 279.731 262.43 288.44L257.741 306.764H307.101C313.514 306.764 319.743 304.629 324.808 300.697C329.873 296.764 333.485 291.258 335.074 285.046V285.046Z" fill="#30242A"/>
<path fill-rule="evenodd" clip-rule="evenodd" d="M258.894 298.834C259.357 298.943 259.643 299.407 259.533 299.869L257.937 306.614C257.828 307.076 257.364 307.362 256.902 307.253C256.44 307.144 256.154 306.68 256.263 306.218L257.859 299.473C257.968 299.011 258.432 298.724 258.894 298.834Z" fill="#FB6D6D"/>
<path d="M129.843 182.213C124.823 184.721 122.315 188.902 122.315 191.831C122.315 196.107 126.669 196.911 126.669 196.911C126.669 196.911 123.421 202.017 129.069 204.413C129.069 204.413 129.069 209.67 134.33 209.67C134.33 209.67 133.633 213.769 139.122 214.156C144.61 214.543 150.258 211.679 150.736 209.825C151.282 207.635 149.807 205.803 145.823 205.222C145.823 205.222 151.2 202.71 150.349 199.54C149.497 196.369 145.862 196.442 145.862 196.442C145.862 196.442 149.342 194.356 147.484 191.281C145.626 188.205 142.072 189.272 142.072 189.272C142.072 189.272 143.002 187.121 141.376 185.482C139.44 183.546 131.116 185.99 131.116 185.99L129.843 182.213Z" fill="white"/>
<path fill-rule="evenodd" clip-rule="evenodd" d="M148.243 204.76C148.453 205.186 148.277 205.702 147.851 205.912C143.616 207.999 139.161 209.608 134.569 210.709C134.107 210.819 133.643 210.535 133.532 210.073C133.421 209.611 133.706 209.146 134.168 209.035C138.635 207.964 142.97 206.399 147.091 204.369C147.517 204.159 148.033 204.334 148.243 204.76Z" fill="#30242A"/>
<path fill-rule="evenodd" clip-rule="evenodd" d="M147.585 196.133C147.837 196.536 147.714 197.067 147.311 197.318C141.717 200.812 135.644 203.473 129.283 205.217C128.825 205.343 128.352 205.073 128.226 204.615C128.101 204.157 128.37 203.683 128.828 203.558C135.028 201.858 140.947 199.264 146.4 195.859C146.803 195.607 147.334 195.73 147.585 196.133Z" fill="#30242A"/>
<path fill-rule="evenodd" clip-rule="evenodd" d="M143.218 189.141C143.492 189.53 143.4 190.066 143.012 190.34C137.976 193.894 132.392 196.599 126.483 198.347C126.027 198.482 125.548 198.222 125.413 197.766C125.279 197.311 125.539 196.832 125.994 196.697C131.724 195.002 137.137 192.38 142.019 188.935C142.408 188.661 142.944 188.753 143.218 189.141Z" fill="#30242A"/>
<path d="M306.43 100.419C299.006 89.6952 278.819 93.9666 278.819 93.9666C279.309 88.0778 280.909 71.1125 268.151 61.791C255.392 52.4696 239.206 57.3776 233.308 64.7333C230.908 67.7444 229.734 71.7964 229.05 76.2184C232.964 76.8766 238.707 75.5302 238.707 75.5302C246.557 84.3613 253.59 85.7636 253.59 85.7636C259.083 80.2705 268.719 80.4512 270.284 88.7747C271.91 97.4165 258.107 101.301 258.107 101.301C258.107 101.301 256.816 116.829 263.699 122.439C265.811 124.113 268.309 125.232 270.964 125.695C276.126 126.723 281.808 126.03 286.996 127.183C291.567 128.169 295.941 129.913 299.935 132.345C301.511 130.956 302.951 129.421 304.237 127.76C308.762 122.021 314.173 111.603 306.43 100.419Z" fill="#30242A"/>
<path d="M246.897 72.3813C244.316 74.5321 241.305 75.8226 237.838 76.6829Z" fill="white"/>
<path fill-rule="evenodd" clip-rule="evenodd" d="M247.558 71.8306C247.862 72.1956 247.813 72.7381 247.448 73.0422C244.738 75.3007 241.595 76.637 238.045 77.5179C237.584 77.6323 237.117 77.3512 237.003 76.8901C236.888 76.4289 237.17 75.9623 237.631 75.8479C241.015 75.0082 243.894 73.7635 246.346 71.7204C246.711 71.4162 247.254 71.4656 247.558 71.8306Z" fill="white"/>
<path fill-rule="evenodd" clip-rule="evenodd" d="M250.655 114.359C250.891 114.771 250.747 115.297 250.335 115.533C248.453 116.609 246.469 117.497 244.412 118.183C243.961 118.333 243.474 118.09 243.323 117.639C243.173 117.188 243.417 116.701 243.867 116.551C245.817 115.901 247.697 115.059 249.481 114.039C249.893 113.803 250.419 113.946 250.655 114.359Z" fill="#30242A"/>
<path fill-rule="evenodd" clip-rule="evenodd" d="M263.288 89.7167C263.54 90.1196 263.418 90.6504 263.015 90.9022L259.092 93.3541C258.689 93.6059 258.158 93.4835 257.906 93.0805C257.655 92.6776 257.777 92.1469 258.18 91.895L262.103 89.4431C262.506 89.1913 263.037 89.3138 263.288 89.7167Z" fill="#30242A"/>
<path fill-rule="evenodd" clip-rule="evenodd" d="M241.607 101.935C242.028 102.154 242.193 102.673 241.974 103.095C241.2 104.585 239.834 105.182 238.628 105.337C238.027 105.415 237.445 105.387 236.949 105.304C236.471 105.223 236.007 105.078 235.673 104.871C235.269 104.621 235.144 104.091 235.394 103.687C235.644 103.283 236.175 103.158 236.579 103.408C236.651 103.453 236.874 103.546 237.236 103.607C237.581 103.665 237.992 103.684 238.408 103.631C239.237 103.524 240.007 103.148 240.447 102.302C240.666 101.88 241.185 101.716 241.607 101.935Z" fill="#30242A"/>
<path d="M244.118 93.1019C244.931 93.1019 245.589 92.4433 245.589 91.6308C245.589 90.8183 244.931 90.1597 244.118 90.1597C243.306 90.1597 242.647 90.8183 242.647 91.6308C242.647 92.4433 243.306 93.1019 244.118 93.1019Z" fill="#30242A"/>
<path d="M231.923 91.1535C232.736 91.1535 233.394 90.4948 233.394 89.6823C233.394 88.8698 232.736 88.2112 231.923 88.2112C231.111 88.2112 230.452 88.8698 230.452 89.6823C230.452 90.4948 231.111 91.1535 231.923 91.1535Z" fill="#30242A"/>
<path fill-rule="evenodd" clip-rule="evenodd" d="M236.325 94.5442C236.778 94.6875 237.029 95.1709 236.886 95.6239C236.743 96.0751 236.618 96.5212 236.548 96.8821C236.513 97.0636 236.497 97.2 236.494 97.292C236.494 97.2977 236.494 97.303 236.494 97.3079C236.643 97.5462 236.852 97.7421 237.1 97.8756C237.519 98.1002 237.676 98.6218 237.452 99.0404C237.227 99.4591 236.706 99.6164 236.287 99.3917C235.713 99.0836 235.241 98.6142 234.931 98.0414L234.924 98.0289L234.918 98.0161C234.777 97.7349 234.769 97.4308 234.774 97.2394C234.781 97.0194 234.815 96.7834 234.859 96.5557C234.947 96.0982 235.096 95.5786 235.245 95.105C235.389 94.652 235.872 94.4009 236.325 94.5442ZM236.496 97.3608C236.496 97.3608 236.495 97.3592 236.495 97.3559C236.496 97.359 236.496 97.3607 236.496 97.3608Z" fill="#30242A"/>
<path d="M260.481 107.039C263.327 107.039 265.635 104.732 265.635 101.886C265.635 99.0396 263.327 96.7324 260.481 96.7324C257.635 96.7324 255.328 99.0396 255.328 101.886C255.328 104.732 257.635 107.039 260.481 107.039Z" fill="white"/>
<path fill-rule="evenodd" clip-rule="evenodd" d="M221.596 87.7672C220.779 91.9688 223.194 95.8126 226.771 96.5087C230.349 97.2047 234.029 94.5467 234.846 90.3451C235.664 86.1436 233.249 82.2998 229.671 81.6037C226.094 80.9076 222.414 83.5657 221.596 87.7672ZM226.443 98.1976C221.77 97.2885 218.942 92.4016 219.907 87.4386C220.873 82.4756 225.327 79.0056 230 79.9147C234.673 80.8239 237.501 85.7107 236.535 90.6737C235.569 95.6368 231.116 99.1068 226.443 98.1976Z" fill="#30242A"/>
<path fill-rule="evenodd" clip-rule="evenodd" d="M240.287 90.0588C239.469 94.2603 241.884 98.1041 245.462 98.8002C249.039 99.4962 252.719 96.8382 253.536 92.6367C254.354 88.4351 251.939 84.5913 248.361 83.8952C244.784 83.1991 241.104 85.8572 240.287 90.0588ZM245.133 100.489C240.46 99.58 237.632 94.6932 238.598 89.7302C239.563 84.7671 244.017 81.2971 248.69 82.2063C253.363 83.1154 256.191 88.0022 255.225 92.9653C254.26 97.9283 249.806 101.398 245.133 100.489Z" fill="#30242A"/>
<path fill-rule="evenodd" clip-rule="evenodd" d="M235.189 89.7239C235.239 89.2514 235.663 88.9094 236.136 88.96L239.108 89.2784C239.581 89.3289 239.922 89.7529 239.872 90.2254C239.821 90.6978 239.397 91.0398 238.925 90.9892L235.952 90.6709C235.48 90.6203 235.138 90.1963 235.189 89.7239Z" fill="#30242A"/>
<path fill-rule="evenodd" clip-rule="evenodd" d="M217.285 170.783C217.734 170.629 218.224 170.868 218.378 171.317L222.542 183.435C222.697 183.884 222.457 184.373 222.008 184.528C221.559 184.682 221.069 184.443 220.915 183.994L216.751 171.876C216.597 171.427 216.836 170.937 217.285 170.783Z" fill="#30242A"/>
<path fill-rule="evenodd" clip-rule="evenodd" d="M227.755 199.204C227.755 198.729 228.14 198.344 228.615 198.344H239.563C240.038 198.344 240.423 198.729 240.423 199.204C240.423 199.679 240.038 200.064 239.563 200.064H228.615C228.14 200.064 227.755 199.679 227.755 199.204Z" fill="#30242A"/>
<path fill-rule="evenodd" clip-rule="evenodd" d="M248.019 167.304C248.484 167.209 248.939 167.509 249.034 167.974L252.484 184.797C252.496 184.854 252.502 184.912 252.502 184.97V200.499C252.502 200.974 252.117 201.359 251.642 201.359C251.166 201.359 250.781 200.974 250.781 200.499V185.058L247.349 168.32C247.253 167.854 247.553 167.4 248.019 167.304Z" fill="#30242A"/>
<path fill-rule="evenodd" clip-rule="evenodd" d="M224.899 128.809C225.334 128.617 225.842 128.814 226.034 129.249L232.585 144.072C232.71 144.353 232.674 144.68 232.492 144.928C232.31 145.176 232.01 145.308 231.704 145.275L225.774 144.618L252.357 184.493C252.621 184.888 252.514 185.423 252.119 185.686C251.723 185.95 251.189 185.843 250.926 185.447L223.318 144.036C223.133 143.758 223.125 143.398 223.299 143.112C223.473 142.826 223.797 142.667 224.129 142.704L230.407 143.4L224.46 129.944C224.268 129.51 224.465 129.002 224.899 128.809Z" fill="#30242A"/>
<path fill-rule="evenodd" clip-rule="evenodd" d="M289.575 127.13C289.963 127.405 290.055 127.942 289.78 128.329L279.727 142.548L288.241 141.837C288.61 141.806 288.958 142.016 289.103 142.356C289.249 142.697 289.16 143.093 288.883 143.338L250.917 176.985C250.562 177.3 250.018 177.268 249.703 176.912C249.388 176.556 249.421 176.013 249.776 175.698L285.805 143.767L278.03 144.417C277.697 144.444 277.378 144.277 277.212 143.986C277.046 143.696 277.063 143.336 277.256 143.063L288.376 127.336C288.65 126.948 289.187 126.856 289.575 127.13Z" fill="#30242A"/>
<path fill-rule="evenodd" clip-rule="evenodd" d="M286.087 168.312C286.473 168.035 287.01 168.124 287.287 168.511L295.559 180.065C295.835 180.451 295.746 180.988 295.36 181.265C294.974 181.542 294.436 181.453 294.16 181.066L285.888 169.512C285.611 169.126 285.7 168.589 286.087 168.312Z" fill="#30242A"/>
<path fill-rule="evenodd" clip-rule="evenodd" d="M286.232 215.397C286.475 214.989 287.004 214.856 287.411 215.1C292.194 217.957 300.191 220.831 304.702 222.335C305.153 222.485 305.397 222.972 305.246 223.423C305.096 223.874 304.609 224.117 304.158 223.967C299.662 222.468 291.494 219.544 286.529 216.577C286.121 216.333 285.988 215.805 286.232 215.397Z" fill="#30242A"/>
<path d="M180.201 116.115C184.874 116.115 188.663 112.327 188.663 107.654C188.663 102.981 184.874 99.1929 180.201 99.1929C175.528 99.1929 171.74 102.981 171.74 107.654C171.74 112.327 175.528 116.115 180.201 116.115Z" fill="white"/>
<path d="M163.774 81.1996L158.818 75.2205L69.7462 149.078C68.9694 149.723 68.4804 150.65 68.3869 151.655C68.2933 152.66 68.6028 153.661 69.2472 154.438L69.3461 154.558C69.6649 154.943 70.0564 155.261 70.4981 155.494C70.9398 155.727 71.4231 155.871 71.9205 155.917C72.4178 155.964 72.9194 155.911 73.3965 155.764C73.8737 155.616 74.3172 155.376 74.7015 155.057L102.55 131.958V213.012H110.323V125.506L163.774 81.1996Z" fill="#6DC8C2"/>
<path d="M149.419 82.9202L151.901 85.9313C152.766 86.9759 153.423 88.176 153.837 89.4671" fill="#C7B8F8"/>
<path fill-rule="evenodd" clip-rule="evenodd" d="M148.756 83.4675L150.083 82.373L152.564 85.3829C152.564 85.3831 152.565 85.3833 152.565 85.3835C153.499 86.5124 154.209 87.8092 154.656 89.2044L153.018 89.7301C152.637 88.5433 152.033 87.4401 151.239 86.4798L148.756 83.4675Z" fill="#30242A"/>
<path d="M106.434 133.752C112.034 133.752 116.573 129.212 116.573 123.613C116.573 118.013 112.034 113.474 106.434 113.474C100.835 113.474 96.2953 118.013 96.2953 123.613C96.2953 129.212 100.835 133.752 106.434 133.752Z" fill="#30242A"/>
<path d="M106.434 127.51C108.586 127.51 110.331 125.765 110.331 123.613C110.331 121.46 108.586 119.716 106.434 119.716C104.282 119.716 102.537 121.46 102.537 123.613C102.537 125.765 104.282 127.51 106.434 127.51Z" fill="#6DC8C2"/>
<path d="M170.347 80.1156C167.619 79.7952 165.121 78.4364 163.369 76.3216L159.928 72.162C158.712 70.6977 156.964 69.776 155.069 69.5994C153.173 69.4227 151.285 70.0056 149.82 71.22V71.22C149.094 71.8215 148.494 72.5601 148.054 73.3934C147.614 74.2268 147.343 75.1387 147.255 76.077C147.168 77.0153 147.266 77.9617 147.545 78.862C147.823 79.7624 148.276 80.5991 148.877 81.3243L152.319 85.4968C154.062 87.6056 154.929 90.3035 154.74 93.0331L153.88 105.611C153.454 111.765 155.016 117.893 158.337 123.092L159.438 124.813L200.703 90.5856L199.223 89.1962C194.732 84.9705 189.001 82.2999 182.877 81.5781L170.347 80.1156Z" fill="#6DC8C2"/>
<path d="M110.323 213.012H102.55L91.0603 216.144C88.9091 216.73 87.0105 218.009 85.6572 219.781C84.3039 221.553 83.571 223.721 83.5713 225.951H129.297C129.297 223.721 128.563 221.552 127.209 219.78C125.855 218.007 123.956 216.73 121.803 216.144L110.323 213.012Z" fill="#6DC8C2"/>
<path d="M329.728 336.922C330.588 329.61 330.158 313.195 320.669 300.686C311.179 288.177 324.11 293.374 327.981 296.815C334.175 302.321 339.63 307.599 344.374 325.287L329.728 336.922Z" fill="#FB6D6D"/>
<path d="M444.308 414.57H494.95V412.914C494.949 410.579 494.021 408.341 492.37 406.69C490.719 405.04 488.48 404.113 486.145 404.113H444.046L444.308 414.57Z" fill="#FB6D6D"/>
<path d="M320.772 366.22L331.453 414.57H351.3V411.559C351.3 409.617 350.53 407.755 349.159 406.38C347.789 405.006 345.929 404.23 343.987 404.225V404.225C343.987 404.225 353.907 396.787 359.946 389.453C359.946 389.453 370.3 402.07 384.968 399.91L386.031 405.072C386.583 407.751 388.042 410.158 390.161 411.888C392.28 413.618 394.931 414.565 397.666 414.57H445.771C467.106 414.57 477.602 411.314 478.204 399.166C478.223 398.703 478.148 398.24 477.983 397.807C477.818 397.373 477.568 396.978 477.246 396.643C476.925 396.309 476.539 396.043 476.113 395.862C475.686 395.68 475.227 395.587 474.763 395.587H461.334C460.78 395.588 460.233 395.464 459.733 395.225C459.234 394.986 458.794 394.638 458.447 394.206L452.73 387.113C451.036 385.014 448.774 383.445 446.215 382.594C443.655 381.742 440.905 381.643 438.29 382.308L426.792 385.246C426.792 385.246 406.42 355.97 387.966 335.636C370.33 316.224 337.156 314.129 324.088 339.413C319.887 347.688 318.714 357.172 320.772 366.22V366.22Z" fill="#FB6D6D"/>
<path fill-rule="evenodd" clip-rule="evenodd" d="M432.221 403.252C433.49 403.252 434.746 403.501 435.919 403.987C437.092 404.472 438.157 405.183 439.055 406.081C439.953 406.978 440.665 408.043 441.15 409.215C441.636 410.388 441.886 411.645 441.886 412.914V414.57H440.166V412.914C440.166 411.871 439.96 410.838 439.561 409.874C439.162 408.91 438.576 408.035 437.839 407.297C437.101 406.56 436.225 405.975 435.261 405.576C434.297 405.178 433.264 404.973 432.221 404.973H426.358V403.252H432.221C432.221 403.252 432.221 403.252 432.221 403.252Z" fill="#30242A"/>
<path fill-rule="evenodd" clip-rule="evenodd" d="M363.595 338.408C363.91 338.053 364.454 338.02 364.81 338.335L364.239 338.979C364.81 338.335 364.81 338.335 364.81 338.335L364.811 338.336L364.813 338.338L364.82 338.344L364.842 338.364C364.861 338.381 364.887 338.406 364.921 338.437C364.988 338.5 365.084 338.592 365.204 338.712C365.445 338.952 365.784 339.307 366.192 339.774C367.007 340.709 368.096 342.096 369.208 343.922C371.433 347.577 373.754 352.996 374.157 360.068L373.298 360.117L374.157 360.068C374.538 366.748 372.072 373.438 369.186 378.857C366.294 384.289 362.931 388.535 361.405 390.351C361.099 390.714 360.556 390.762 360.193 390.456C359.829 390.15 359.782 389.608 360.087 389.244C361.572 387.477 364.853 383.334 367.668 378.048C370.49 372.748 372.794 366.39 372.439 360.166C372.055 353.429 369.846 348.279 367.738 344.817C366.684 343.085 365.656 341.777 364.896 340.905C364.515 340.47 364.203 340.144 363.988 339.929C363.881 339.822 363.798 339.743 363.743 339.692C363.716 339.666 363.696 339.647 363.683 339.636L363.67 339.624L363.668 339.623C363.668 339.622 363.668 339.622 363.668 339.622M363.595 338.408C363.28 338.764 363.313 339.307 363.668 339.622Z" fill="#30242A"/>
<path fill-rule="evenodd" clip-rule="evenodd" d="M382.311 380.821C382.785 380.796 383.191 381.159 383.216 381.634L382.357 381.68L381.498 381.726C381.473 381.252 381.836 380.847 382.311 380.821ZM382.357 381.68C381.498 381.726 381.498 381.726 381.498 381.726L381.505 381.845C381.509 381.922 381.515 382.036 381.524 382.184C381.541 382.479 381.567 382.909 381.602 383.449C381.671 384.529 381.775 386.047 381.913 387.804C382.189 391.315 382.605 395.795 383.162 399.634C383.23 400.104 383.667 400.43 384.137 400.361C384.607 400.293 384.933 399.857 384.865 399.387C384.316 395.603 383.904 391.168 383.628 387.669C383.491 385.922 383.388 384.412 383.319 383.339C383.285 382.803 383.259 382.376 383.242 382.083C383.233 381.937 383.227 381.824 383.223 381.748L383.216 381.634C383.216 381.634 383.216 381.634 382.357 381.68Z" fill="#30242A"/>
<path fill-rule="evenodd" clip-rule="evenodd" d="M340.946 409.292C341.421 409.292 341.806 409.677 341.806 410.152V414.14C341.806 414.615 341.421 415 340.946 415C340.471 415 340.086 414.615 340.086 414.14V410.152C340.086 409.677 340.471 409.292 340.946 409.292Z" fill="#30242A"/>
<path fill-rule="evenodd" clip-rule="evenodd" d="M345.691 409.292C346.166 409.292 346.551 409.677 346.551 410.152V414.14C346.551 414.615 346.166 415 345.691 415C345.216 415 344.83 414.615 344.83 414.14V410.152C344.83 409.677 345.216 409.292 345.691 409.292Z" fill="#30242A"/>
<path fill-rule="evenodd" clip-rule="evenodd" d="M431.537 409.292C432.012 409.292 432.397 409.677 432.397 410.152V414.14C432.397 414.615 432.012 415 431.537 415C431.062 415 430.676 414.615 430.676 414.14V410.152C430.676 409.677 431.062 409.292 431.537 409.292Z" fill="#30242A"/>
<path fill-rule="evenodd" clip-rule="evenodd" d="M436.281 409.292C436.757 409.292 437.142 409.677 437.142 410.152V414.14C437.142 414.615 436.757 415 436.281 415C435.806 415 435.421 414.615 435.421 414.14V410.152C435.421 409.677 435.806 409.292 436.281 409.292Z" fill="#30242A"/>
<path d="M449.005 398.504C450.077 398.504 450.945 397.635 450.945 396.564C450.945 395.492 450.077 394.624 449.005 394.624C447.934 394.624 447.065 395.492 447.065 396.564C447.065 397.635 447.934 398.504 449.005 398.504Z" fill="#30242A"/>
<path d="M438.419 382.269V382.218L426.775 385.229L438.273 382.291L438.419 382.269Z" fill="#30242A"/>
<path d="M409.762 404.306C406.39 406.027 401.624 409.395 402.019 414.497H420.748L424.684 408.29C425.328 407.274 426.217 406.438 427.27 405.858C428.322 405.279 429.505 404.974 430.707 404.973H431.958L438.376 382.399L438.282 382.3L426.783 385.238L415.776 399.338C414.155 401.411 412.103 403.106 409.762 404.306V404.306Z" fill="#30242A"/>
<path d="M382.409 346.175C382.409 346.175 377.2 364.207 394.023 371.017C402.553 374.458 409.638 371.847 414.554 368.436C407.126 358.542 397.296 345.947 387.962 335.658C385.622 333.083 382.992 330.786 380.125 328.814C377.578 332.281 374.791 340.859 382.409 346.175Z" fill="#FFC1EB"/>
<path d="M339.436 359.252C343.368 359.252 346.555 356.064 346.555 352.133C346.555 348.201 343.368 345.014 339.436 345.014C335.504 345.014 332.317 348.201 332.317 352.133C332.317 356.064 335.504 359.252 339.436 359.252Z" fill="#FFC1EB"/>
<path d="M474.78 395.587H472.199C472.057 396.307 472.076 397.049 472.255 397.761C472.433 398.472 472.767 399.135 473.232 399.703C473.697 400.27 474.281 400.728 474.944 401.042C475.607 401.357 476.331 401.521 477.064 401.523C477.368 401.523 477.67 401.494 477.968 401.437C478.099 400.686 478.184 399.928 478.222 399.166C478.24 398.703 478.165 398.24 478 397.807C477.836 397.373 477.585 396.978 477.264 396.643C476.942 396.309 476.557 396.043 476.13 395.862C475.703 395.68 475.244 395.587 474.78 395.587Z" fill="#30242A"/>
<path fill-rule="evenodd" clip-rule="evenodd" d="M485.027 409.292C485.502 409.292 485.887 409.677 485.887 410.152V414.041C485.887 414.516 485.502 414.901 485.027 414.901C484.551 414.901 484.166 414.516 484.166 414.041V410.152C484.166 409.677 484.551 409.292 485.027 409.292Z" fill="#30242A"/>
<path fill-rule="evenodd" clip-rule="evenodd" d="M489.771 409.292C490.246 409.292 490.632 409.677 490.632 410.152V414.041C490.632 414.516 490.246 414.901 489.771 414.901C489.296 414.901 488.911 414.516 488.911 414.041V410.152C488.911 409.677 489.296 409.292 489.771 409.292Z" fill="#30242A"/>
<path fill-rule="evenodd" clip-rule="evenodd" d="M478.417 403.252C478.861 403.419 479.086 403.915 478.919 404.359C476.445 410.944 469.664 413.843 459.08 414.91C458.607 414.957 458.185 414.613 458.138 414.14C458.09 413.667 458.435 413.245 458.907 413.198C469.418 412.139 475.215 409.326 477.309 403.754C477.476 403.309 477.972 403.084 478.417 403.252Z" fill="#30242A"/>
<path d="M287.018 187.736C281.709 187.261 276.372 187.202 271.054 187.56C263.449 188.183 253.224 190.175 249.117 192.162C245.009 194.15 229.278 201.165 233.515 203.518C237.386 205.669 245.508 202.434 245.508 202.434C245.508 202.434 237.403 209.885 236.01 213.003C234.616 216.122 239.223 217.873 239.223 217.873C240.436 223.198 245.865 220.91 245.865 220.91C249.284 228.184 267.759 212.423 267.759 212.423C272.155 212.879 276.594 212.692 280.935 211.868C280.935 211.868 283.275 213.18 287.03 215.004L287.018 187.736Z" fill="white"/>
<path d="M333.173 224.226C367.685 207.833 317.657 146.583 299.957 132.341L290.037 172.461L302.546 189.715C297.066 188.769 291.827 188.119 287.018 187.736V215.004C297.969 220.329 320.983 230.033 333.173 224.226Z" fill="#5360E4"/>
<path fill-rule="evenodd" clip-rule="evenodd" d="M256.518 193.319C256.777 193.717 256.664 194.25 256.266 194.509C252.519 196.948 247.469 201.014 244.404 203.549C244.038 203.852 243.496 203.801 243.193 203.435C242.89 203.068 242.941 202.526 243.307 202.223C246.368 199.691 251.487 195.567 255.328 193.067C255.726 192.808 256.259 192.921 256.518 193.319Z" fill="#30242A"/>
<path fill-rule="evenodd" clip-rule="evenodd" d="M260.7 199.373C260.958 199.772 260.844 200.304 260.446 200.563C251.709 206.221 243.73 213.796 239.768 217.774C239.433 218.111 238.888 218.112 238.551 217.777C238.215 217.442 238.214 216.897 238.549 216.56C242.537 212.555 250.619 204.877 259.51 199.119C259.909 198.86 260.442 198.974 260.7 199.373Z" fill="#30242A"/>
<path fill-rule="evenodd" clip-rule="evenodd" d="M264.597 205.811C264.866 206.202 264.767 206.738 264.375 207.007C258.411 211.101 251.461 217.329 246.902 221.626C246.556 221.952 246.012 221.936 245.686 221.59C245.36 221.244 245.376 220.7 245.722 220.374C250.29 216.068 257.321 209.762 263.401 205.588C263.793 205.319 264.329 205.419 264.597 205.811Z" fill="#30242A"/>
<path d="M367.426 203.979C368.079 203.98 368.704 204.24 369.165 204.701C369.626 205.162 369.886 205.787 369.887 206.439V206.805C369.886 207.457 369.626 208.082 369.165 208.543C368.704 209.005 368.079 209.264 367.426 209.265H354.75V203.979H367.426ZM367.426 200.538H351.773C351.712 200.538 351.651 200.55 351.594 200.573C351.538 200.597 351.486 200.632 351.443 200.675C351.4 200.719 351.366 200.77 351.343 200.827C351.32 200.884 351.308 200.945 351.309 201.006V212.255C351.309 212.378 351.357 212.496 351.445 212.583C351.532 212.671 351.65 212.72 351.773 212.72H367.426C368.203 212.72 368.971 212.566 369.688 212.269C370.405 211.972 371.056 211.536 371.604 210.986C372.152 210.437 372.587 209.785 372.883 209.067C373.179 208.35 373.33 207.581 373.328 206.805V206.426C373.328 204.861 372.706 203.36 371.6 202.253C370.493 201.146 368.992 200.525 367.426 200.525V200.538Z" fill="#FB6D6D"/>
<path d="M337.133 188.467H329.758L338.361 225.951H358.613L367.216 188.467H350.253H337.133Z" fill="#FB6D6D"/>
</svg>
