<svg id="Layer_1" data-name="Layer 1" xmlns="http://www.w3.org/2000/svg" xmlns:xlink="http://www.w3.org/1999/xlink" viewBox="0 0 924.77 716.24"><defs><style>.cls-1{fill:none;}.cls-2{fill:#6dc8c2;}.cls-3{fill:#fff;}.cls-4{fill:#c7b8f8;}.cls-5{clip-path:url(#clip-path);}.cls-6{fill:#ffbb45;}.cls-7{fill:#ffc1eb;}.cls-8{fill:#fb6d6d;}</style><clipPath id="clip-path"><path class="cls-1" d="M647.06,601.26,434.58,626.15c-9.53-23.63-11.35-25.79-20.87-49.41a91.86,91.86,0,0,1-2.84-60.61l29.73-99.65a11,11,0,0,1,10.16-7.88l187.44-7.13C642.73,483.52,642.53,519.21,647.06,601.26Z"/></clipPath></defs><polygon class="cls-2" points="406.77 140.51 88.31 701.68 909.38 701.68 607.28 140.51 406.77 140.51"/><path d="M673.94,387.25a65.33,65.33,0,0,0-44.48-92.67,21.42,21.42,0,0,1-10.91-6.12l0,0c-5.67-5.92-6.64-11.23-14.66-27.32-.87-1.74-1.59-3.14-2-3.94L535,283.1l18.13,55.43a65.31,65.31,0,0,0,85.4,80.9,29.78,29.78,0,1,0,35.41-32.18Z"/><circle cx="477.12" cy="388.35" r="32.64"/><path class="cls-3" d="M582.11,302.15a21.84,21.84,0,0,0-21.43-21.95l-1.34-14.7a35.58,35.58,0,0,0-38.55-32.41l-54.16,5a26.9,26.9,0,0,0-24.12,29.36l6,66.13a42.38,42.38,0,0,0,45.94,38.62L497,372l3.35,36.66L571.85,402l-4-43.42h-.07l-3.18-34.91A21.91,21.91,0,0,0,582.11,302.15Z"/><path d="M560.15,312.61a8.49,8.49,0,1,1,8.49-8.49A8.5,8.5,0,0,1,560.15,312.61Zm0-13a4.49,4.49,0,1,0,4.49,4.49A4.49,4.49,0,0,0,560.15,299.63Z"/><path d="M496.78,372.07l42.59-5.3A1.17,1.17,0,0,1,540,369l-41.67,19.93Z"/><path d="M553.88,307.81a2,2,0,0,1-2-1.61,13.22,13.22,0,0,1,4.18-12.51c5.19-4.55,11.53-3,12.24-2.77a2,2,0,0,1-1.08,3.86,9.66,9.66,0,0,0-8.51,1.92,9.19,9.19,0,0,0-2.91,8.71,2,2,0,0,1-1.56,2.36A2.71,2.71,0,0,1,553.88,307.81Z"/><circle cx="455.25" cy="304.55" r="4.23"/><circle cx="500.38" cy="299.33" r="4.23"/><path d="M473.58,321.43a2,2,0,0,1-.47-.06c-3.19-.77-6.48-1.93-6.71-4.6a3.8,3.8,0,0,1,1.05-2.73c.19-.26.42-.56.68-1a9.09,9.09,0,0,0,1.35-5l-.09-18.44a2,2,0,0,1,2-2h0a2,2,0,0,1,2,2l.09,18.44a13,13,0,0,1-2,7.09c-.31.49-.58.85-.81,1.15a14.21,14.21,0,0,0,3.34,1.13,2,2,0,0,1-.47,3.95Z"/><path d="M480.47,339a18.68,18.68,0,0,1-7.81-1.84,2,2,0,0,1,1.84-3.56c.06,0,4.66,2.34,8.82,1a8.84,8.84,0,0,0,5.12-4.81,2,2,0,1,1,3.58,1.79,12.72,12.72,0,0,1-7.48,6.83A13.08,13.08,0,0,1,480.47,339Z"/><rect class="cls-4" x="498.83" y="384.34" width="72.68" height="33.45" transform="matrix(1, -0.09, 0.09, 1, -34.56, 50.82)"/><path d="M467.66,240.68c6.35-.5,12.43,4.73,16,9.38,6,7.84,8.53,17.4,13.15,26,9.18,17,31.5,19.13,47.78,12.05l61.29-22.88c-1.52-4.88-9.37-32.53-37.48-45.92a73.37,73.37,0,0,0-41.73-6.11l-51.59,2.73a36.14,36.14,0,0,0-17,5.13c-9.33,5.75-19.53,18-15.92,43.87a27.9,27.9,0,0,1,25.55-24.24Z"/><path class="cls-3" d="M446.53,412.15s-23.2,3.26-38.43,49.83c-3.77,11.52-7.82,22.94-12.4,34.16l-31.26,70.94L387.21,665l51-33.2-17-44.09c-9.59-23-12.41-48.92-5.17-72.74Z"/><path class="cls-4" d="M646.55,601.38,434.07,626.27c-9.53-23.63-11.35-25.8-20.87-49.42a91.9,91.9,0,0,1-2.84-60.6l29.73-99.65a11,11,0,0,1,10.17-7.88l187.44-7.14C642.22,483.64,642,519.33,646.55,601.38Z"/><g class="cls-5"><path class="cls-3" d="M417,337.45c6.64,3.8,10.53,10.74,14,17.28a194,194,0,0,1,22,72.74,175.25,175.25,0,0,1-2.36,49.61,170.3,170.3,0,0,1-15.13,44.14,159.37,159.37,0,0,1-27,38.21q-2,2.13-4.16,4.18c-2.78,2.69,1.47,6.93,4.25,4.24A163.93,163.93,0,0,0,438,529.27a175.18,175.18,0,0,0,17.3-45.42A179.77,179.77,0,0,0,459.38,433,196,196,0,0,0,449,381.19a203.68,203.68,0,0,0-10.42-24.77c-3.6-7.22-7.47-14.95-13.53-20.44a29.26,29.26,0,0,0-5.08-3.71c-3.35-1.92-6.38,3.26-3,5.18Z"/><path class="cls-3" d="M567.61,684.9a150.61,150.61,0,0,1,12.89-66.07,154.06,154.06,0,0,1,40.07-54.39c9-7.73,19.33-15.45,31.18-17.8a28.54,28.54,0,0,1,15.74,1.29,32.18,32.18,0,0,1,5.86,3.14,34.14,34.14,0,0,1,5.16,4.35c6.91,7,11.54,16.4,14.83,25.6,4.4,12.32,7.3,25.31,9.65,38.16a308.93,308.93,0,0,1,3.75,82.7q-.47,5.19-1.1,10.36c-.2,1.61,1.52,3,3,3a3.08,3.08,0,0,0,3-3A314.62,314.62,0,0,0,710.19,626a293.38,293.38,0,0,0-9.2-40.92c-3.18-10.42-7.55-20.69-14.27-29.33-6.58-8.47-15.69-14.62-26.56-15.56-13.19-1.13-25.65,5.93-35.82,13.58a157.34,157.34,0,0,0-45.27,54.15,159.32,159.32,0,0,0-17.52,68.45c-.06,2.85,0,5.69.06,8.54.14,3.85,6.14,3.87,6,0Z"/><path class="cls-3" d="M457.71,634.05a142.07,142.07,0,0,1,.18-49.06c2.66-14.77,7.42-29.43,15.29-42.28A73.9,73.9,0,0,1,486,526.83a56.94,56.94,0,0,1,7.8-6,48.8,48.8,0,0,1,8.18-4.25,45.93,45.93,0,0,1,17.8-3.14,40.88,40.88,0,0,1,16.67,3.77,30.84,30.84,0,0,1,13.19,11.65c3.71,6,5.17,13.46,3,20.12a19.51,19.51,0,0,1-4.79,7.7c-2.12,2.08-5.07,4-8.18,4.27a8.36,8.36,0,0,1-6.93-2.89,18.83,18.83,0,0,1-4.29-7.62c-4.48-14.75,1.9-30.87,9.48-43.41a117.81,117.81,0,0,1,28.23-31.4,141.82,141.82,0,0,1,38.69-21.28,194.68,194.68,0,0,1,47.73-10.67q6-.6,12-.91a3,3,0,1,0,0-6,218.13,218.13,0,0,0-51.68,8.56,155.78,155.78,0,0,0-44.21,21,128.31,128.31,0,0,0-32.56,32.38c-9.16,13.34-16.74,29.94-14.81,46.5.86,7.4,3.56,15.17,10,19.5,6.9,4.6,15.59,1.42,21-4a26.29,26.29,0,0,0,7.18-21.21,34.32,34.32,0,0,0-10.36-20.69c-9.66-9.29-23.82-12.59-36.87-10.89-14.5,1.89-27.07,9.89-36.43,20.94-10,11.83-16.51,26.3-20.67,41.14a148.47,148.47,0,0,0-5,52.6c.38,4.39,1,8.78,1.71,13.13a3,3,0,0,0,3.69,2.09,3.06,3.06,0,0,0,2.09-3.69Z"/></g><path class="cls-3" d="M757.15,592.14l.11,0s-14.37-33.45-15.2-35.4l-32-74.55L696.22,450c-6.27-14.61-11.4-30.42-24.64-40.38-17-12.77-42.69-15.4-60.22-2.21-14.91,11.22-19,31.6-18.73,49.34.36,20.1,7,39.67,15.74,57.57,9,18.44,16.4,37.64,24.67,56.43q6.76,15.33,13.51,30.66L444.07,625.1a65.67,65.67,0,0,0-19.44,5.37q-12.75,5.78-25.95,12.4-7.71,3.89-15.1,7.82l12.72,51H685.13C741.92,701.68,779.44,643.45,757.15,592.14Z"/><path class="cls-3" d="M686.33,582.43c0-4.83-17.13-8.75-38.25-8.75s-38.25,3.92-38.25,8.75l-4.12,43.16c9.58-1.56,22.95-1.66,34.85,5.7A43.41,43.41,0,0,0,654.31,637c8.23,1.73,20.63,2.14,35.54-4.18Z"/><path d="M665.12,640.14A55.13,55.13,0,0,1,653.9,639a45.64,45.64,0,0,1-14.39-6C628,625.87,615,626.11,606,627.56l-2.56.42,4.36-45.66c.23-8.41,26.39-10.64,40.25-10.64s40.08,2.23,40.24,10.67l3.62,51.8-1.31.55A65.08,65.08,0,0,1,665.12,640.14Zm-49.2-17.4a48.4,48.4,0,0,1,25.69,6.85,41.27,41.27,0,0,0,13.12,5.49c7.32,1.54,18.91,2.14,33-3.52l-3.42-49.13c0-1.62-10.91-6.75-36.25-6.75s-36.25,5.13-36.25,6.75v.19l-3.88,40.63A64,64,0,0,1,615.92,622.74Z"/><path class="cls-6" d="M692.5,629.32c-15.88,6.32-29.07,5.91-37.83,4.18A47.92,47.92,0,0,1,640,627.75c-12.66-7.37-26.9-7.26-37.1-5.71l-4.17,41.07a37.6,37.6,0,0,0,37.41,41.4h21.43a37.59,37.59,0,0,0,37.49-40.38Z"/><path d="M645,678.56h-.18a2,2,0,0,1-1.81-2.17l12.45-137.8a8.38,8.38,0,0,1,8.38-7.65h29.62a2,2,0,0,1,0,4H663.87a4.39,4.39,0,0,0-4.39,4L647,676.74A2,2,0,0,1,645,678.56Z"/><path d="M648,592.9c-1.15,0-2.29,0-3.44-.06A92.36,92.36,0,0,1,609,584.25a2,2,0,1,1,1.68-3.63,88.32,88.32,0,0,0,34,8.22,89.44,89.44,0,0,0,40.79-8.22,2,2,0,0,1,1.68,3.63A93.73,93.73,0,0,1,648,592.9Z"/><path d="M521.58,409.45a2,2,0,0,1-2-1.88l-1.18-20.34a2,2,0,1,1,4-.23l1.18,20.33a2,2,0,0,1-1.88,2.12Z"/><path d="M541.86,408a2,2,0,0,1-2-1.88l-1.18-20.34a2,2,0,1,1,4-.23l1.18,20.33A2,2,0,0,1,542,408Z"/><path d="M545.23,704.05H383.58V669.1H545.23a8.43,8.43,0,0,1,8.43,8.42v18.1A8.43,8.43,0,0,1,545.23,704.05Z"/><path d="M401.83,704.05H212.37a16.38,16.38,0,0,1-15.81-11.57L150.17,535.2c-3-10.19,4.88-20.34,15.81-20.34H344.67a16.35,16.35,0,0,1,16.05,12.44Z"/><circle class="cls-7" cx="264.24" cy="624.37" r="26.25"/><path class="cls-2" d="M258.47,605.71a2,2,0,0,1-2-1.53l-3.13-12.86a2,2,0,1,1,3.88-1l3.14,12.86a2,2,0,0,1-1.47,2.42A2,2,0,0,1,258.47,605.71Z"/><path d="M909.38,703.68H116.65a2,2,0,1,1,0-4H909.38a2,2,0,0,1,0,4Z"/><path class="cls-3" d="M507,166.51a34,34,0,1,1,34.05-34A34.08,34.08,0,0,1,507,166.51Zm0-64.09a30,30,0,1,0,30.05,30.05A30.08,30.08,0,0,0,507,102.42Z"/><rect x="497.86" y="13.95" width="18.33" height="79.66" rx="7.76"/><path class="cls-7" d="M505.57,71.39a117.8,117.8,0,0,0-102.51,63,4.2,4.2,0,0,0,3.71,6.15H607.28a4.19,4.19,0,0,0,3.71-6.15A117.82,117.82,0,0,0,505.57,71.39Z"/><path class="cls-8" d="M445.42,121.35c-13.16,0-23.88-8.89-24-9a2,2,0,0,1,2.58-3.06h0c.88.74,21.67,17.88,39.44.12l1.21-1.22,1.38,1c1,.72,24.43,17.48,41.71.2l1.18-1.18,1.37.94a44.71,44.71,0,0,0,12.77,5.6c9.35,2.36,17.09.56,23-5.36l1.24-1.24,1.4,1.06c.93.71,23.06,17.26,40.15.18a2,2,0,1,1,2.83,2.82c-16.93,16.94-38.37,4.85-44,1.15-6.77,6-15.62,7.82-25.71,5.24a49.05,49.05,0,0,1-12.56-5.28c-17,15.47-38.65,3.61-44.33,0C458.54,119.32,451.7,121.35,445.42,121.35Z"/><path d="M388.72,651.52a2,2,0,0,1-1-3.71c6.51-3.95,13.24-7.71,20-11.16a301.32,301.32,0,0,1,27.65-12.36A2,2,0,0,1,436.8,628c-9.26,3.6-18.44,7.7-27.28,12.2-6.69,3.4-13.34,7.11-19.76,11A2,2,0,0,1,388.72,651.52Z"/><path class="cls-3" d="M130.61,594l11.59-43.88H76.45L86.9,594.44a56.08,56.08,0,1,0,43.71-.48Z"/><path d="M109.33,703.91A58.08,58.08,0,0,1,84.57,593.3L73.93,548.08H144.8L133,592.8a58.08,58.08,0,0,1-23.66,111.11ZM79,552.08,89.23,595.6l-1.53.67a54.07,54.07,0,1,0,42.16-.47l-1.63-.66,11.38-43.06Z"/><ellipse cx="109.3" cy="547.99" rx="35.58" ry="7.54"/><path d="M99.63,554.06a2,2,0,0,1-1.88-1.31c-12.14-33.1-37.23-60-37.48-60.23a2,2,0,0,1,2.91-2.75c.26.28,25.9,27.72,38.33,61.6a2,2,0,0,1-1.19,2.57A2.09,2.09,0,0,1,99.63,554.06Z"/><path d="M115.65,554.33a2,2,0,0,1-2-2V523.69a2,2,0,0,1,4,0v28.64A2,2,0,0,1,115.65,554.33Z"/><path class="cls-4" d="M71.85,472.49H63.37c-.17-.43-.35-.86-.54-1.28l6.22-5.5a6.56,6.56,0,0,0-8.69-9.82l-6.55,5.8c-.1.09-.18.2-.27.29-.42-.18-.84-.35-1.27-.51v-7.93a6.56,6.56,0,0,0-13.11,0v7.93a15.46,15.46,0,0,0-1.77.76,7.34,7.34,0,0,0-.61-.64l-6.62-5.71a6.56,6.56,0,0,0-8.56,9.93l6.62,5.71.18.12c-.13.28-.23.57-.34.85H19.85a6.56,6.56,0,0,0-6.56,6.56h0a6.56,6.56,0,0,0,6.56,6.55H28c.07.19.13.37.2.55l-.06.05L21.58,492a6.55,6.55,0,0,0,8.68,9.82L36.81,496l.13-.15a17.6,17.6,0,0,0,2.22,1v7.86a6.56,6.56,0,0,0,13.11,0v-7.86c.46-.17.91-.35,1.35-.56L60,501.82a6.56,6.56,0,0,0,8.56-9.93L62.89,487c.2-.45.39-.91.56-1.38h8.4a6.56,6.56,0,0,0,6.56-6.55h0A6.56,6.56,0,0,0,71.85,472.49Z"/><path class="cls-4" d="M71.85,472.49H63.37c-.17-.43-.35-.86-.54-1.28l6.22-5.5a6.56,6.56,0,0,0-8.69-9.82l-6.55,5.8c-.1.09-.18.2-.27.29-.42-.18-.84-.35-1.27-.51v-7.93a6.56,6.56,0,0,0-13.11,0v7.93a15.46,15.46,0,0,0-1.77.76,7.34,7.34,0,0,0-.61-.64l-6.62-5.71a6.56,6.56,0,0,0-8.56,9.93l6.62,5.71.18.12c-.13.28-.23.57-.34.85H19.85a6.56,6.56,0,0,0-6.56,6.56h0a6.56,6.56,0,0,0,6.56,6.55H28c.07.19.13.37.2.55l-.06.05L21.58,492a6.55,6.55,0,0,0,8.68,9.82L36.81,496l.13-.15a17.6,17.6,0,0,0,2.22,1v7.86a6.56,6.56,0,0,0,13.11,0v-7.86c.46-.17.91-.35,1.35-.56L60,501.82a6.56,6.56,0,0,0,8.56-9.93L62.89,487c.2-.45.39-.91.56-1.38h8.4a6.56,6.56,0,0,0,6.56-6.55h0A6.56,6.56,0,0,0,71.85,472.49Z"/><path class="cls-4" d="M71.85,472.49H63.37c-.17-.43-.35-.86-.54-1.28l6.22-5.5a6.56,6.56,0,0,0-8.69-9.82l-6.55,5.8c-.1.09-.18.2-.27.29-.42-.18-.84-.35-1.27-.51v-7.93a6.56,6.56,0,0,0-13.11,0v7.93a15.46,15.46,0,0,0-1.77.76,7.34,7.34,0,0,0-.61-.64l-6.62-5.71a6.56,6.56,0,0,0-8.56,9.93l6.62,5.71.18.12c-.13.28-.23.57-.34.85H19.85a6.56,6.56,0,0,0-6.56,6.56h0a6.56,6.56,0,0,0,6.56,6.55H28c.07.19.13.37.2.55l-.06.05L21.58,492a6.55,6.55,0,0,0,8.68,9.82L36.81,496l.13-.15a17.6,17.6,0,0,0,2.22,1v7.86a6.56,6.56,0,0,0,13.11,0v-7.86c.46-.17.91-.35,1.35-.56L60,501.82a6.56,6.56,0,0,0,8.56-9.93L62.89,487c.2-.45.39-.91.56-1.38h8.4a6.56,6.56,0,0,0,6.56-6.55h0A6.56,6.56,0,0,0,71.85,472.49Z"/><path class="cls-4" d="M71.85,472.49H63.37c-.17-.43-.35-.86-.54-1.28l6.22-5.5a6.56,6.56,0,0,0-8.69-9.82l-6.55,5.8c-.1.09-.18.2-.27.29-.42-.18-.84-.35-1.27-.51v-7.93a6.56,6.56,0,0,0-13.11,0v7.93a15.46,15.46,0,0,0-1.77.76,7.34,7.34,0,0,0-.61-.64l-6.62-5.71a6.56,6.56,0,0,0-8.56,9.93l6.62,5.71.18.12c-.13.28-.23.57-.34.85H19.85a6.56,6.56,0,0,0-6.56,6.56h0a6.56,6.56,0,0,0,6.56,6.55H28c.07.19.13.37.2.55l-.06.05L21.58,492a6.55,6.55,0,0,0,8.68,9.82L36.81,496l.13-.15a17.6,17.6,0,0,0,2.22,1v7.86a6.56,6.56,0,0,0,13.11,0v-7.86c.46-.17.91-.35,1.35-.56L60,501.82a6.56,6.56,0,0,0,8.56-9.93L62.89,487c.2-.45.39-.91.56-1.38h8.4a6.56,6.56,0,0,0,6.56-6.55h0A6.56,6.56,0,0,0,71.85,472.49Z"/><path class="cls-4" d="M71.85,472.49H63.37c-.17-.43-.35-.86-.54-1.28l6.22-5.5a6.56,6.56,0,0,0-8.69-9.82l-6.55,5.8c-.1.09-.18.2-.27.29-.42-.18-.84-.35-1.27-.51v-7.93a6.56,6.56,0,0,0-13.11,0v7.93a15.46,15.46,0,0,0-1.77.76,7.34,7.34,0,0,0-.61-.64l-6.62-5.71a6.56,6.56,0,0,0-8.56,9.93l6.62,5.71.18.12c-.13.28-.23.57-.34.85H19.85a6.56,6.56,0,0,0-6.56,6.56h0a6.56,6.56,0,0,0,6.56,6.55H28c.07.19.13.37.2.55l-.06.05L21.58,492a6.55,6.55,0,0,0,8.68,9.82L36.81,496l.13-.15a17.6,17.6,0,0,0,2.22,1v7.86a6.56,6.56,0,0,0,13.11,0v-7.86c.46-.17.91-.35,1.35-.56L60,501.82a6.56,6.56,0,0,0,8.56-9.93L62.89,487c.2-.45.39-.91.56-1.38h8.4a6.56,6.56,0,0,0,6.56-6.55h0A6.56,6.56,0,0,0,71.85,472.49Z"/><path class="cls-4" d="M71.85,472.49H63.37c-.17-.43-.35-.86-.54-1.28l6.22-5.5a6.56,6.56,0,0,0-8.69-9.82l-6.55,5.8c-.1.09-.18.2-.27.29-.42-.18-.84-.35-1.27-.51v-7.93a6.56,6.56,0,0,0-13.11,0v7.93a15.46,15.46,0,0,0-1.77.76,7.34,7.34,0,0,0-.61-.64l-6.62-5.71a6.56,6.56,0,0,0-8.56,9.93l6.62,5.71.18.12c-.13.28-.23.57-.34.85H19.85a6.56,6.56,0,0,0-6.56,6.56h0a6.56,6.56,0,0,0,6.56,6.55H28c.07.19.13.37.2.55l-.06.05L21.58,492a6.55,6.55,0,0,0,8.68,9.82L36.81,496l.13-.15a17.6,17.6,0,0,0,2.22,1v7.86a6.56,6.56,0,0,0,13.11,0v-7.86c.46-.17.91-.35,1.35-.56L60,501.82a6.56,6.56,0,0,0,8.56-9.93L62.89,487c.2-.45.39-.91.56-1.38h8.4a6.56,6.56,0,0,0,6.56-6.55h0A6.56,6.56,0,0,0,71.85,472.49Z"/><path class="cls-4" d="M71.85,472.49H63.37c-.17-.43-.35-.86-.54-1.28l6.22-5.5a6.56,6.56,0,0,0-8.69-9.82l-6.55,5.8c-.1.09-.18.2-.27.29-.42-.18-.84-.35-1.27-.51v-7.93a6.56,6.56,0,0,0-13.11,0v7.93a15.46,15.46,0,0,0-1.77.76,7.34,7.34,0,0,0-.61-.64l-6.62-5.71a6.56,6.56,0,0,0-8.56,9.93l6.62,5.71.18.12c-.13.28-.23.57-.34.85H19.85a6.56,6.56,0,0,0-6.56,6.56h0a6.56,6.56,0,0,0,6.56,6.55H28c.07.19.13.37.2.55l-.06.05L21.58,492a6.55,6.55,0,0,0,8.68,9.82L36.81,496l.13-.15a17.6,17.6,0,0,0,2.22,1v7.86a6.56,6.56,0,0,0,13.11,0v-7.86c.46-.17.91-.35,1.35-.56L60,501.82a6.56,6.56,0,0,0,8.56-9.93L62.89,487c.2-.45.39-.91.56-1.38h8.4a6.56,6.56,0,0,0,6.56-6.55h0A6.56,6.56,0,0,0,71.85,472.49Z"/><path class="cls-4" d="M141.65,496.65h-8.49c-.16-.44-.34-.87-.53-1.28l6.21-5.51a6.55,6.55,0,1,0-8.68-9.81l-6.55,5.79a3.85,3.85,0,0,0-.27.3c-.42-.19-.84-.36-1.27-.52v-7.93a6.56,6.56,0,0,0-13.11,0v7.93a17.45,17.45,0,0,0-1.77.76,7.34,7.34,0,0,0-.61-.64L100,480A6.56,6.56,0,0,0,91.4,490L98,495.67a1.77,1.77,0,0,0,.17.12c-.12.28-.22.57-.33.86H89.65a6.56,6.56,0,0,0-6.56,6.55h0a6.56,6.56,0,0,0,6.56,6.56h8.13c.07.18.13.37.2.55l-.06,0-6.55,5.79a6.56,6.56,0,0,0,8.69,9.82l6.55-5.79s.08-.1.13-.14a19.11,19.11,0,0,0,2.22,1v7.86a6.56,6.56,0,0,0,13.11,0V521c.46-.17.91-.35,1.35-.56l6.41,5.53a6.55,6.55,0,0,0,8.56-9.92l-5.7-4.92c.2-.45.38-.91.55-1.37h8.41a6.56,6.56,0,0,0,6.56-6.56h0A6.56,6.56,0,0,0,141.65,496.65Z"/><path class="cls-4" d="M141.65,496.65h-8.49c-.16-.44-.34-.87-.53-1.28l6.21-5.51a6.55,6.55,0,1,0-8.68-9.81l-6.55,5.79a3.85,3.85,0,0,0-.27.3c-.42-.19-.84-.36-1.27-.52v-7.93a6.56,6.56,0,0,0-13.11,0v7.93a17.45,17.45,0,0,0-1.77.76,7.34,7.34,0,0,0-.61-.64L100,480A6.56,6.56,0,0,0,91.4,490L98,495.67a1.77,1.77,0,0,0,.17.12c-.12.28-.22.57-.33.86H89.65a6.56,6.56,0,0,0-6.56,6.55h0a6.56,6.56,0,0,0,6.56,6.56h8.13c.07.18.13.37.2.55l-.06,0-6.55,5.79a6.56,6.56,0,0,0,8.69,9.82l6.55-5.79s.08-.1.13-.14a19.11,19.11,0,0,0,2.22,1v7.86a6.56,6.56,0,0,0,13.11,0V521c.46-.17.91-.35,1.35-.56l6.41,5.53a6.55,6.55,0,0,0,8.56-9.92l-5.7-4.92c.2-.45.38-.91.55-1.37h8.41a6.56,6.56,0,0,0,6.56-6.56h0A6.56,6.56,0,0,0,141.65,496.65Z"/><path class="cls-4" d="M141.65,496.65h-8.49c-.16-.44-.34-.87-.53-1.28l6.21-5.51a6.55,6.55,0,1,0-8.68-9.81l-6.55,5.79a3.85,3.85,0,0,0-.27.3c-.42-.19-.84-.36-1.27-.52v-7.93a6.56,6.56,0,0,0-13.11,0v7.93a17.45,17.45,0,0,0-1.77.76,7.34,7.34,0,0,0-.61-.64L100,480A6.56,6.56,0,0,0,91.4,490L98,495.67a1.77,1.77,0,0,0,.17.12c-.12.28-.22.57-.33.86H89.65a6.56,6.56,0,0,0-6.56,6.55h0a6.56,6.56,0,0,0,6.56,6.56h8.13c.07.18.13.37.2.55l-.06,0-6.55,5.79a6.56,6.56,0,0,0,8.69,9.82l6.55-5.79s.08-.1.13-.14a19.11,19.11,0,0,0,2.22,1v7.86a6.56,6.56,0,0,0,13.11,0V521c.46-.17.91-.35,1.35-.56l6.41,5.53a6.55,6.55,0,0,0,8.56-9.92l-5.7-4.92c.2-.45.38-.91.55-1.37h8.41a6.56,6.56,0,0,0,6.56-6.56h0A6.56,6.56,0,0,0,141.65,496.65Z"/><path class="cls-4" d="M141.65,496.65h-8.49c-.16-.44-.34-.87-.53-1.28l6.21-5.51a6.55,6.55,0,1,0-8.68-9.81l-6.55,5.79a3.85,3.85,0,0,0-.27.3c-.42-.19-.84-.36-1.27-.52v-7.93a6.56,6.56,0,0,0-13.11,0v7.93a17.45,17.45,0,0,0-1.77.76,7.34,7.34,0,0,0-.61-.64L100,480A6.56,6.56,0,0,0,91.4,490L98,495.67a1.77,1.77,0,0,0,.17.12c-.12.28-.22.57-.33.86H89.65a6.56,6.56,0,0,0-6.56,6.55h0a6.56,6.56,0,0,0,6.56,6.56h8.13c.07.18.13.37.2.55l-.06,0-6.55,5.79a6.56,6.56,0,0,0,8.69,9.82l6.55-5.79s.08-.1.13-.14a19.11,19.11,0,0,0,2.22,1v7.86a6.56,6.56,0,0,0,13.11,0V521c.46-.17.91-.35,1.35-.56l6.41,5.53a6.55,6.55,0,0,0,8.56-9.92l-5.7-4.92c.2-.45.38-.91.55-1.37h8.41a6.56,6.56,0,0,0,6.56-6.56h0A6.56,6.56,0,0,0,141.65,496.65Z"/><path class="cls-4" d="M141.65,496.65h-8.49c-.16-.44-.34-.87-.53-1.28l6.21-5.51a6.55,6.55,0,1,0-8.68-9.81l-6.55,5.79a3.85,3.85,0,0,0-.27.3c-.42-.19-.84-.36-1.27-.52v-7.93a6.56,6.56,0,0,0-13.11,0v7.93a17.45,17.45,0,0,0-1.77.76,7.34,7.34,0,0,0-.61-.64L100,480A6.56,6.56,0,0,0,91.4,490L98,495.67a1.77,1.77,0,0,0,.17.12c-.12.28-.22.57-.33.86H89.65a6.56,6.56,0,0,0-6.56,6.55h0a6.56,6.56,0,0,0,6.56,6.56h8.13c.07.18.13.37.2.55l-.06,0-6.55,5.79a6.56,6.56,0,0,0,8.69,9.82l6.55-5.79s.08-.1.13-.14a19.11,19.11,0,0,0,2.22,1v7.86a6.56,6.56,0,0,0,13.11,0V521c.46-.17.91-.35,1.35-.56l6.41,5.53a6.55,6.55,0,0,0,8.56-9.92l-5.7-4.92c.2-.45.38-.91.55-1.37h8.41a6.56,6.56,0,0,0,6.56-6.56h0A6.56,6.56,0,0,0,141.65,496.65Z"/><path class="cls-4" d="M141.65,496.65h-8.49c-.16-.44-.34-.87-.53-1.28l6.21-5.51a6.55,6.55,0,1,0-8.68-9.81l-6.55,5.79a3.85,3.85,0,0,0-.27.3c-.42-.19-.84-.36-1.27-.52v-7.93a6.56,6.56,0,0,0-13.11,0v7.93a17.45,17.45,0,0,0-1.77.76,7.34,7.34,0,0,0-.61-.64L100,480A6.56,6.56,0,0,0,91.4,490L98,495.67a1.77,1.77,0,0,0,.17.12c-.12.28-.22.57-.33.86H89.65a6.56,6.56,0,0,0-6.56,6.55h0a6.56,6.56,0,0,0,6.56,6.56h8.13c.07.18.13.37.2.55l-.06,0-6.55,5.79a6.56,6.56,0,0,0,8.69,9.82l6.55-5.79s.08-.1.13-.14a19.11,19.11,0,0,0,2.22,1v7.86a6.56,6.56,0,0,0,13.11,0V521c.46-.17.91-.35,1.35-.56l6.41,5.53a6.55,6.55,0,0,0,8.56-9.92l-5.7-4.92c.2-.45.38-.91.55-1.37h8.41a6.56,6.56,0,0,0,6.56-6.56h0A6.56,6.56,0,0,0,141.65,496.65Z"/><path class="cls-4" d="M141.65,496.65h-8.49c-.16-.44-.34-.87-.53-1.28l6.21-5.51a6.55,6.55,0,1,0-8.68-9.81l-6.55,5.79a3.85,3.85,0,0,0-.27.3c-.42-.19-.84-.36-1.27-.52v-7.93a6.56,6.56,0,0,0-13.11,0v7.93a17.45,17.45,0,0,0-1.77.76,7.34,7.34,0,0,0-.61-.64L100,480A6.56,6.56,0,0,0,91.4,490L98,495.67a1.77,1.77,0,0,0,.17.12c-.12.28-.22.57-.33.86H89.65a6.56,6.56,0,0,0-6.56,6.55h0a6.56,6.56,0,0,0,6.56,6.56h8.13c.07.18.13.37.2.55l-.06,0-6.55,5.79a6.56,6.56,0,0,0,8.69,9.82l6.55-5.79s.08-.1.13-.14a19.11,19.11,0,0,0,2.22,1v7.86a6.56,6.56,0,0,0,13.11,0V521c.46-.17.91-.35,1.35-.56l6.41,5.53a6.55,6.55,0,0,0,8.56-9.92l-5.7-4.92c.2-.45.38-.91.55-1.37h8.41a6.56,6.56,0,0,0,6.56-6.56h0A6.56,6.56,0,0,0,141.65,496.65Z"/><circle class="cls-3" cx="45.85" cy="479.12" r="8.68"/><circle class="cls-3" cx="115.65" cy="503.74" r="8.68"/><path d="M127.05,660.65a16.44,16.44,0,1,1,16.44-16.44A16.45,16.45,0,0,1,127.05,660.65Zm0-28.88a12.44,12.44,0,1,0,12.44,12.44A12.45,12.45,0,0,0,127.05,631.77Z"/><path d="M101.15,688a11.39,11.39,0,1,1,11.39-11.39A11.4,11.4,0,0,1,101.15,688Zm0-18.78a7.39,7.39,0,1,0,7.39,7.39A7.4,7.4,0,0,0,101.15,669.22Z"/></svg>